<svg id="Layer_1" data-name="Layer 1" xmlns="http://www.w3.org/2000/svg" viewBox="0 0 453.87 453.87"><defs><style>.cls-1{fill:#fafafa;}.cls-2{fill:none;stroke:#fafafa;stroke-miterlimit:10;stroke-width:4px;}</style></defs><title>logo compressed</title><path class="cls-1" d="M232.66,58.19q48.43,0,88.63,23.9a179.51,179.51,0,0,1,63.79,63.79q23.58,39.88,24.21,89V411.46H349.15V367.14A176.26,176.26,0,0,1,296,399.75a171.25,171.25,0,0,1-63.31,11.71q-48.75,0-88.79-23.9a181.8,181.8,0,0,1-63.94-63.94Q56,283.57,56,234.83q0-48.44,23.9-88.64a181.6,181.6,0,0,1,63.94-64.1Q183.91,58.19,232.66,58.19Zm0,60.15q-32.28,0-58.72,15.67a118.35,118.35,0,0,0-42.1,42.1q-15.66,26.43-15.67,58.72,0,32.6,15.67,59a118.27,118.27,0,0,0,42.1,42.1q26.43,15.68,58.72,15.67T291.38,336a118.19,118.19,0,0,0,42.1-42.1q15.67-26.42,15.67-59,0-32.29-15.67-58.72a118.27,118.27,0,0,0-42.1-42.1Q265,118.34,232.66,118.34Z" transform="translate(-5.91 -8.98)"/><path class="cls-2" d="M232.85,460.85C108.62,460.85,7.91,360.14,7.91,235.91S108.62,11,232.85,11,457.79,111.69,457.79,235.91" transform="translate(-5.91 -8.98)"/><polyline class="cls-2" points="451.87 226.94 451.87 451.87 220.81 451.87"/></svg>